<?xml version="1.0" encoding="iso-8859-1"?>
<svg version="1.1" xmlns="http://www.w3.org/2000/svg" xmlns:xlink="http://www.w3.org/1999/xlink" viewBox="0 0 460 460" xml:space="preserve">
<g>
	<polygon style="fill:#354A67;" points="460,403.568 60,403.568 60,0 30,0 30,403.568 0,403.568 0,433.568 30,433.568 30,460 60,460 60,433.568 460,433.568"/>
	<rect x="360.01" y="52.568" transform="matrix(-0.8835 -0.4685 0.4685 -0.8835 631.6956 475.71)" style="fill:#3897FF;" width="30.001" height="213.45"/>
	<rect x="207.724" y="193.579" transform="matrix(-0.7433 -0.669 0.669 -0.7433 339.8557 547.5782)" style="fill:#8BC0FF;" width="134.541" height="30.001"/>
	<rect x="159.985" y="150.29" transform="matrix(-0.8682 -0.4962 0.4962 -0.8682 202.327 555.8734)" style="fill:#BFDCFF;" width="30" height="201.555"/>
	<circle style="fill:#3897FF;" cx="225" cy="163.568" r="35"/>
	<circle style="fill:#354A67;" cx="325" cy="253.568" r="35"/>
	<circle style="fill:#354A67;" cx="425" cy="65" r="35"/>
	<circle style="fill:#3897FF;" cx="125" cy="338.568" r="35"/>
</g>
</svg>
